<?xml version="1.0" encoding="UTF-8"?>
<svg id="Layer_2" data-name="Layer 2" xmlns="http://www.w3.org/2000/svg" viewBox="0 0 70.03 70.03">
  <defs>
    <style>
      .cls-1 {
        fill: #0a2540;
      }

      .cls-2 {
        fill: #c25b3f;
      }
    </style>
  </defs>
  <g id="Layer_1-2" data-name="Layer 1">
    <g>
      <path class="cls-1" d="M47.93,36.66l19.77,19.77c1.44,1.44,2.33,3.43,2.33,5.63,0,4.4-3.57,7.97-7.97,7.97-2.2,0-4.2-.89-5.63-2.33l-19.77-19.77c5.88-.74,10.53-5.4,11.27-11.27M33.38,47.93l-19.77,19.77c-1.44,1.44-3.43,2.33-5.63,2.33-4.4,0-7.97-3.57-7.97-7.97,0-2.2.89-4.2,2.33-5.63l19.77-19.77c.74,5.88,5.4,10.53,11.27,11.27M13.6,2.33l19.77,19.77c-5.88.74-10.53,5.4-11.27,11.27L2.33,13.6c-1.44-1.44-2.33-3.43-2.33-5.63C0,3.57,3.57,0,7.97,0c2.2,0,4.19.89,5.63,2.33M36.66,22.1L56.43,2.33c1.44-1.44,3.43-2.33,5.63-2.33,4.4,0,7.97,3.57,7.97,7.97,0,2.2-.89,4.2-2.33,5.63l-19.77,19.77c-.74-5.88-5.4-10.53-11.27-11.27"/>
      <path class="cls-2" d="M42.72,35.02c0,4.25-3.45,7.7-7.7,7.7s-7.7-3.45-7.7-7.7,3.45-7.7,7.7-7.7,7.7,3.45,7.7,7.7"/>
    </g>
  </g>
</svg>