<?xml version="1.0" encoding="UTF-8"?>
<svg id="Layer_2" data-name="Layer 2" xmlns="http://www.w3.org/2000/svg" viewBox="0 0 120.24 32.82">
  <defs>
    <style>
      .cls-1 {
        fill: #0a2540;
      }

      .cls-2 {
        fill: #c25b3f;
      }
    </style>
  </defs>
  <g id="Layer_1-2" data-name="Layer 1">
    <path class="cls-1" d="M12.88,32.82c-2.26,0-4.3-.39-6.11-1.18-1.82-.78-3.31-1.9-4.48-3.35-1.17-1.45-1.93-3.18-2.28-5.18l4.76-.72c.49,1.93,1.5,3.43,3.02,4.5,1.53,1.07,3.32,1.61,5.36,1.61,1.27,0,2.44-.2,3.5-.6,1.06-.4,1.92-.98,2.57-1.73.65-.75.98-1.65.98-2.7,0-.57-.1-1.07-.3-1.51-.2-.44-.46-.82-.81-1.15-.34-.33-.76-.61-1.25-.86-.49-.24-1.02-.45-1.61-.62l-8.08-2.39c-.79-.23-1.58-.54-2.4-.91-.82-.37-1.57-.86-2.24-1.47-.68-.61-1.23-1.36-1.66-2.25-.42-.9-.63-1.99-.63-3.27,0-1.94.5-3.58,1.5-4.93,1-1.35,2.35-2.37,4.06-3.06C8.48.37,10.39.02,12.51.02c2.13.03,4.04.41,5.72,1.14,1.68.73,3.08,1.78,4.2,3.14,1.11,1.36,1.88,3.01,2.3,4.95l-4.89.83c-.22-1.18-.69-2.2-1.4-3.05-.71-.85-1.59-1.5-2.62-1.96-1.04-.46-2.16-.7-3.37-.71-1.17-.03-2.23.14-3.2.52-.97.38-1.74.91-2.32,1.6-.58.68-.87,1.47-.87,2.36s.26,1.58.77,2.12,1.14.97,1.89,1.27c.75.32,1.5.58,2.24.78l5.82,1.64c.73.2,1.55.48,2.48.82.93.34,1.82.82,2.68,1.43.87.61,1.59,1.43,2.16,2.44.57,1.01.85,2.29.85,3.82s-.32,2.99-.96,4.19c-.64,1.2-1.52,2.21-2.63,3.02-1.11.81-2.4,1.42-3.86,1.83-1.46.41-3,.61-4.62.61"/>
    <path class="cls-1" d="M46.07,32.16v-6.82h-.55V8.54h4.62v23.62h-4.07ZM38.26,32.8c-1.63,0-3.01-.26-4.12-.79-1.11-.53-2-1.21-2.7-2.07-.69-.86-1.22-1.79-1.58-2.79-.37-1-.61-1.99-.74-2.95-.14-.96-.2-1.81-.2-2.54v-13.12h4.64v11.62c0,.92.08,1.86.23,2.83.16.97.45,1.87.88,2.71.43.83,1.04,1.5,1.81,2.01.78.51,1.8.76,3.05.76.81,0,1.59-.13,2.32-.4.73-.27,1.37-.7,1.91-1.3.55-.6.98-1.39,1.29-2.36.31-.98.47-2.17.47-3.57l2.84,1.07c0,2.15-.4,4.04-1.2,5.68-.8,1.64-1.96,2.92-3.46,3.84-1.5.92-3.32,1.38-5.45,1.38"/>
    <path class="cls-1" d="M54.25,8.54h14.46v3.68h-14.46v-3.68ZM58.16,32.16V7.7c0-.59.02-1.23.07-1.91.04-.68.17-1.35.38-2.01.21-.67.56-1.28,1.06-1.83.6-.65,1.26-1.12,1.97-1.4.71-.27,1.43-.43,2.13-.48.71-.04,1.36-.07,1.96-.07h2.98v3.77h-2.76c-1.08,0-1.89.27-2.41.8-.53.53-.8,1.29-.8,2.26v25.34h-4.57Z"/>
    <path class="cls-1" d="M71.94,32.16V8.54h4.07v5.73l-.57-.74c.29-.76.67-1.46,1.14-2.09.46-.63,1.01-1.15,1.62-1.56.59-.44,1.26-.78,2-1.02.74-.24,1.5-.39,2.27-.44.77-.05,1.52,0,2.23.12v4.29c-.78-.2-1.63-.27-2.57-.18-.94.09-1.8.39-2.59.9-.75.48-1.33,1.06-1.76,1.75-.43.68-.74,1.45-.93,2.29-.19.84-.29,1.72-.29,2.65v11.93h-4.62Z"/>
    <rect class="cls-1" x="89.03" y="8.54" width="4.57" height="23.62"/>
    <rect class="cls-2" x="89.03" y=".23" width="4.57" height="4.44"/>
    <polygon class="cls-1" points="97.28 32.16 106.11 20.22 97.47 8.54 102.9 8.54 108.78 16.65 114.6 8.54 120.02 8.54 111.38 20.22 120.24 32.16 114.8 32.16 108.78 23.78 102.72 32.16 97.28 32.16"/>
  </g>
</svg>